<svg xmlns="http://www.w3.org/2000/svg" width="560" height="300" viewBox="0 0 560 300"><title>02 / REAL-TIME &amp; GEOSPATIAL</title><style>@keyframes lift{0%,80%,100%{transform:translateY(0)}40%{transform:translateY(-5px)}}@keyframes pulse{0%,100%{opacity:.35}50%{opacity:1}}@keyframes flow{to{stroke-dashoffset:-80}}@keyframes reveal{0%{stroke-dashoffset:700}60%,100%{stroke-dashoffset:0}}@keyframes radar{from{transform:rotate(0deg)}to{transform:rotate(360deg)}}.lift{animation:lift 5s ease-in-out infinite}.pulse{animation:pulse 3s ease-in-out infinite}.flow{stroke-dasharray:7 13;animation:flow 4s linear infinite}.chart{stroke-dasharray:700;animation:reveal 5s ease-in-out infinite}.radar{transform-origin:280px 108px;animation:radar 9s linear infinite}@media(prefers-reduced-motion:reduce){*{animation:none!important}}</style><rect x="1" y="1" width="558" height="298" rx="18" fill="#101923" stroke="#29394a"/><path d="M25 190H535" stroke="#29394a"/><g fill="none" stroke-linecap="round" stroke-linejoin="round"><path d="M88 62L206 45L338 68L467 42V151L341 171L206 148L88 168Z" stroke="#67d8f5" opacity=".4"/><path d="M206 45V148M338 68V171M88 117L206 96L338 122L467 99" stroke="#67d8f5" opacity=".3"/><circle cx="280" cy="108" r="63" stroke="#67d8f5" opacity=".3"/><circle cx="280" cy="108" r="39" stroke="#67d8f5" opacity=".5"/><path class="radar" d="M280 108L280 45A63 63 0 0 1 335 76Z" fill="#67d8f5" opacity=".15"/><circle class="pulse" cx="246" cy="86" r="6" fill="#67d8f5"/><circle class="pulse" style="animation-delay:1s" cx="308" cy="132" r="6" fill="#67d8f5"/><path d="M409 59C390 59 390 84 409 101C428 84 428 59 409 59Z" stroke="#67d8f5" stroke-width="2"/><circle cx="409" cy="74" r="4" fill="#67d8f5"/></g><style>text{fill:#67d8f5;font:13px Arial,sans-serif}</style><text x="26" y="225" style="font:bold 19px Arial,sans-serif;fill:#67d8f5">02 / REAL-TIME &amp; GEOSPATIAL</text><text x="26" y="261" style="font:17px Arial,sans-serif;fill:#a8b8ca">Maps, layers, and live signals.</text></svg>